<svg xmlns="http://www.w3.org/2000/svg" version="1.1" xmlns:xlink="http://www.w3.org/1999/xlink" xmlns:svgjs="http://svgjs.com/svgjs" width="1440" height="560" preserveAspectRatio="none" viewBox="0 0 1440 560">
    <g mask="url(&quot;#SvgjsMask1002&quot;)" fill="none">
        <path d="M1113.662,268.011C1132.866,268.777,1149.196,254.435,1157.79,237.245C1165.542,221.741,1162.414,203.622,1153.192,188.945C1144.599,175.269,1129.809,166.652,1113.662,167.014C1098.108,167.363,1084.832,177.158,1077.087,190.651C1069.379,204.08,1068.622,219.953,1075.24,233.951C1083.081,250.535,1095.333,267.28,1113.662,268.011" fill="rgba(255, 255, 255, 0.4)" class="triangle-float1"></path>
        <path d="M387.556,202.234C426.8,199.345,458.172,172.423,476.889,137.809C494.603,105.049,495.228,66.981,478.753,33.58C459.902,-4.638,430.17,-43.232,387.556,-43.302C344.868,-43.372,317.486,-3.513,295.837,33.278C273.744,70.823,251.331,114.597,272.115,152.882C293.514,192.302,342.823,205.527,387.556,202.234" fill="rgba(255, 255, 255, 0.4)" class="triangle-float3"></path>
        <path d="M1447.9104104424823 242.68611089144895L1362.3927708445635 120.30619829813631 1305.1807035035072 237.60831975219756z" fill="rgba(255, 255, 255, 0.4)" class="triangle-float3"></path>
        <path d="M376.519,119.904C401.925,119.746,418.77,97.26,432.24,75.719C446.954,52.19,464.617,24.722,451.247,0.404C437.626,-24.371,404.755,-27.053,376.519,-25.631C351.232,-24.358,326.113,-14.787,313.777,7.324C301.707,28.958,307.523,54.781,319.583,76.42C332.043,98.777,350.924,120.063,376.519,119.904" fill="rgba(255, 255, 255, 0.4)" class="triangle-float3"></path>
        <path d="M955.048,523.675C986.164,521.694,1004.109,491.369,1018.412,463.664C1031.193,438.909,1039.976,410.218,1026.096,386.062C1012.177,361.838,982.948,354.851,955.048,353.392C923.417,351.737,887.337,351.484,869.843,377.888C851.089,406.194,858.846,443.416,875.979,472.731C892.935,501.743,921.512,525.81,955.048,523.675" fill="rgba(255, 255, 255, 0.4)" class="triangle-float3"></path>
        <path d="M1041.178304699358 350.918399208032L969.9617138711316 335.7808455277234 982.8636787647819 450.17450861021734z" fill="rgba(255, 255, 255, 0.4)" class="triangle-float2"></path>
        <path d="M271.5044055040159 258.02368357423995L145.08639574418038 209.49635624668292 96.55906841662335 335.91436600651843 222.97707817645886 384.44169333407547z" fill="rgba(255, 255, 255, 0.4)" class="triangle-float3"></path>
        <path d="M853.1710218261245 610.6037343170738L915.9200679252206 550.007684869325 793.6514707040495 486.18214044455533z" fill="rgba(255, 255, 255, 0.4)" class="triangle-float1"></path>
        <path d="M433.398,544.544C452.262,544.334,468.917,534.001,479.124,518.136C490.376,500.647,497.736,478.602,487.453,460.526C477.091,442.311,454.284,436.042,433.398,437.753C415.305,439.235,401.928,452.604,392.777,468.283C383.528,484.129,377.247,502.98,385.873,519.174C394.921,536.161,414.152,544.758,433.398,544.544" fill="rgba(255, 255, 255, 0.4)" class="triangle-float3"></path>
    </g>
    <defs>
        <mask id="SvgjsMask1002">
            <rect width="1440" height="560" fill="#ffffff"></rect>
        </mask>
        <style>
            @keyframes float1 {
                0%{transform: translate(0, 0)}
                50%{transform: translate(-10px, 0)}
                100%{transform: translate(0, 0)}
            }

            .triangle-float1 {
                animation: float1 5s infinite;
            }

            @keyframes float2 {
                0%{transform: translate(0, 0)}
                50%{transform: translate(-5px, -5px)}
                100%{transform: translate(0, 0)}
            }

            .triangle-float2 {
                animation: float2 4s infinite;
            }

            @keyframes float3 {
                0%{transform: translate(0, 0)}
                50%{transform: translate(0, -10px)}
                100%{transform: translate(0, 0)}
            }

            .triangle-float3 {
                animation: float3 6s infinite;
            }
        </style>
    </defs>
</svg>