<?xml version="1.0" standalone="no"?>
<!DOCTYPE svg PUBLIC "-//W3C//DTD SVG 20010904//EN"
 "http://www.w3.org/TR/2001/REC-SVG-20010904/DTD/svg10.dtd">
<svg version="1.0" xmlns="http://www.w3.org/2000/svg"
 width="300.000000pt" height="300.000000pt" viewBox="0 0 300.000000 300.000000"
 preserveAspectRatio="xMidYMid meet">
<metadata>
Created by potrace 1.11, written by Peter Selinger 2001-2013
</metadata>
<g transform="translate(0.000000,300.000000) scale(0.100000,-0.100000)"
fill="#000000" stroke="none">
<path d="M465 1781 c-142 -143 -262 -268 -266 -278 -3 -10 -4 -25 -1 -33 2 -8
65 -74 138 -146 74 -71 192 -187 262 -257 155 -153 159 -154 239 -72 34 35 53
63 53 78 0 18 -50 73 -199 219 l-198 196 193 193 c113 113 196 204 199 218 6
33 -97 141 -134 141 -21 0 -80 -54 -286 -259z"/>
<path d="M1582 2028 c-10 -13 -347 -777 -408 -926 -34 -84 -35 -112 -2 -125 7
-3 37 -14 65 -26 l52 -20 24 22 c13 12 48 78 77 147 54 127 80 186 125 285 14
31 25 58 25 60 0 2 13 34 30 69 41 91 62 139 66 151 1 6 30 71 63 146 36 83
58 145 54 157 -3 13 -26 30 -63 46 -64 29 -92 32 -108 14z"/>
<path d="M2141 1991 c-82 -83 -89 -68 150 -305 l211 -209 -187 -187 c-215
-215 -214 -214 -144 -287 48 -49 83 -67 105 -55 7 4 126 120 264 256 203 202
250 254 250 276 0 21 -21 47 -97 119 -54 51 -177 171 -274 267 -204 202 -203
202 -278 125z"/>
<path d="M1888 1803 c-18 -5 -23 -18 -94 -273 -20 -74 -39 -137 -41 -139 -5
-7 -13 5 -18 28 -2 13 -7 31 -10 41 -3 10 -7 27 -9 37 -8 39 -38 148 -43 157
-4 5 -26 -30 -50 -77 l-43 -87 31 -107 c62 -219 70 -242 85 -258 16 -16 80
-20 101 -7 14 9 40 68 47 108 3 16 10 44 15 62 5 17 8 32 6 32 -3 0 0 11 5 25
5 14 12 38 15 53 13 72 39 178 47 187 4 5 8 -49 9 -120 1 -357 1 -355 74 -355
35 0 44 4 53 25 13 28 18 599 6 630 -10 26 -55 43 -114 42 -30 0 -63 -2 -72
-4z"/>
<path d="M994 1616 c-102 -33 -149 -140 -106 -239 l21 -47 150 0 150 0 -9 -29
c-19 -69 -64 -102 -123 -94 -16 2 -55 22 -86 43 -66 45 -81 48 -104 22 -26
-28 -21 -44 26 -91 52 -54 91 -71 177 -78 65 -5 68 -5 75 18 8 23 16 42 89
203 20 43 39 89 42 102 3 13 10 27 15 30 13 7 11 51 -2 77 -32 62 -96 90 -205
92 -45 0 -95 -3 -110 -9z m180 -122 c14 -15 26 -36 26 -48 0 -21 -4 -22 -92
-21 l-93 1 2 28 c3 45 29 66 83 66 38 0 53 -5 74 -26z"/>
</g>
</svg>
